# xmcd CD database file
#
# Track frame offsets:
#	150
#	13761
#	25153
#	39423
#	53381
#	65815
#	81636
#	94485
#	108620
#	120712
#	136594
#	155127
#
# Disc length: 2279 seconds
#
# Revision: 0
# Processed by: cddbd v1.5.1PL2 Copyright (c) Steve Scherf et al.
# Submitted via: CDex 1.51
#
DISCID=a308e50c
DTITLE=Art Tatum - Art Tatum (Blue Jazz)
DYEAR=2000
DGENRE=Jazz
TTITLE0=Indiana
TTITLE1=Battery Bounce
TTITLE2=Lover
TTITLE3=Tea For Two
TTITLE4=Begin The Beguine
TTITLE5=Poor Butterfly
TTITLE6=Cocktails For Two
TTITLE7=Someone To Watch Over Me
TTITLE8=Art´s Blues
TTITLE9=Would You Like To Take A Walk
TTITLE10=Jitterbug Waltz
TTITLE11=Willow Weep For Me
EXTD=YEAR: 2000
EXTT0=
EXTT1=
EXTT2=
EXTT3=
EXTT4=
EXTT5=
EXTT6=
EXTT7=
EXTT8=
EXTT9=
EXTT10=
EXTT11=
PLAYORDER=
